<mxfile host="app.diagrams.net" agent="Mozilla/5.0 (Windows NT 10.0; Win64; x64) AppleWebKit/537.36 (KHTML, like Gecko) Chrome/140.0.0.0 Safari/537.36" version="28.2.3">
  <diagram name="Page-1" id="sVBfVyQoioIfFS6Q4Ph2">
    <mxGraphModel grid="1" page="1" gridSize="10" guides="1" tooltips="1" connect="1" arrows="1" fold="1" pageScale="1" pageWidth="850" pageHeight="1100" math="0" shadow="0">
      <root>
        <mxCell id="0" />
        <mxCell id="1" parent="0" />
        <mxCell id="OQPAwg6tuMYvYWRS_jNI-22" value="" style="endArrow=none;html=1;rounded=0;exitX=0;exitY=0.5;exitDx=0;exitDy=0;edgeStyle=orthogonalEdgeStyle;dashed=1;dashPattern=8 8;entryX=0.75;entryY=1;entryDx=0;entryDy=0;" edge="1" parent="1" source="9Vpx_MVxpbdplWGW8Vaq-218" target="n0dhm6OhQnU2BIpkCSnQ-1">
          <mxGeometry width="50" height="50" relative="1" as="geometry">
            <mxPoint x="480" y="713" as="sourcePoint" />
            <mxPoint x="350" y="547" as="targetPoint" />
            <Array as="points">
              <mxPoint x="340" y="713" />
              <mxPoint x="340" y="560" />
              <mxPoint x="280" y="560" />
            </Array>
          </mxGeometry>
        </mxCell>
        <mxCell id="n0dhm6OhQnU2BIpkCSnQ-1" value="MCU:&lt;br&gt;nRF52820 &lt;br&gt;64MHz&lt;br&gt;&lt;br&gt;&lt;br&gt;&lt;br&gt;&lt;br&gt;&lt;br&gt;&lt;br&gt;&lt;br&gt;&lt;div&gt;&lt;br&gt;&lt;/div&gt;" style="rounded=1;whiteSpace=wrap;html=1;labelPosition=center;verticalLabelPosition=middle;align=center;verticalAlign=middle;fillColor=#e1d5e7;strokeColor=#9673a6;" vertex="1" parent="1">
          <mxGeometry x="183" y="362" width="130" height="180" as="geometry" />
        </mxCell>
        <mxCell id="9Vpx_MVxpbdplWGW8Vaq-1" value="Flash&amp;nbsp;&lt;br&gt;&lt;span style=&quot;background-color: transparent;&quot;&gt;256kB&lt;/span&gt;&lt;div&gt;&lt;br&gt;&lt;br&gt;&lt;div&gt;&lt;br&gt;&lt;/div&gt;&lt;/div&gt;" style="rounded=1;whiteSpace=wrap;html=1;fillColor=#dae8fc;strokeColor=#6c8ebf;" vertex="1" parent="1">
          <mxGeometry x="203" y="417" width="90" height="83" as="geometry" />
        </mxCell>
        <mxCell id="9Vpx_MVxpbdplWGW8Vaq-2" value="Software" style="shape=hexagon;perimeter=hexagonPerimeter2;whiteSpace=wrap;html=1;fixedSize=1;fillColor=#cce5ff;strokeColor=#36393d;" vertex="1" parent="1">
          <mxGeometry x="213" y="460" width="70" height="30" as="geometry" />
        </mxCell>
        <mxCell id="9Vpx_MVxpbdplWGW8Vaq-96" value="Temperature&lt;br&gt;sensor:&lt;br&gt;&lt;div&gt;MY18E20&lt;/div&gt;" style="rounded=1;whiteSpace=wrap;html=1;fillColor=#d5e8d4;strokeColor=#82b366;dashed=1;" vertex="1" parent="1">
          <mxGeometry x="20" y="467" width="120" height="60" as="geometry" />
        </mxCell>
        <mxCell id="9Vpx_MVxpbdplWGW8Vaq-98" value="Factory reset&lt;div&gt;button&lt;/div&gt;" style="rounded=1;whiteSpace=wrap;html=1;fillColor=#d5e8d4;strokeColor=#82b366;" vertex="1" parent="1">
          <mxGeometry x="20" y="376" width="120" height="60" as="geometry" />
        </mxCell>
        <mxCell id="9Vpx_MVxpbdplWGW8Vaq-99" value="Rotary encoder&lt;br&gt;(+ button)" style="rounded=1;whiteSpace=wrap;html=1;fillColor=#d5e8d4;strokeColor=#82b366;" vertex="1" parent="1">
          <mxGeometry x="610" y="467" width="120" height="60" as="geometry" />
        </mxCell>
        <mxCell id="9Vpx_MVxpbdplWGW8Vaq-101" value="USB" style="rounded=1;whiteSpace=wrap;html=1;fillColor=#f8cecc;strokeColor=#b85450;dashed=1;" vertex="1" parent="1">
          <mxGeometry x="208" y="881.25" width="80" height="60" as="geometry" />
        </mxCell>
        <mxCell id="9Vpx_MVxpbdplWGW8Vaq-102" value="2.4MHz PCB antenna" style="rounded=1;whiteSpace=wrap;html=1;fillColor=#dae8fc;strokeColor=#6c8ebf;" vertex="1" parent="1">
          <mxGeometry x="208" y="207" width="80" height="70" as="geometry" />
        </mxCell>
        <mxCell id="9Vpx_MVxpbdplWGW8Vaq-105" value="JTAG connector" style="rounded=1;whiteSpace=wrap;html=1;fillColor=#dae8fc;strokeColor=#6c8ebf;rotation=0;" vertex="1" parent="1">
          <mxGeometry x="40" y="293" width="80" height="32" as="geometry" />
        </mxCell>
        <mxCell id="9Vpx_MVxpbdplWGW8Vaq-110" value="" style="endArrow=none;html=1;rounded=0;entryX=1;entryY=0.5;entryDx=0;entryDy=0;exitX=0.25;exitY=0;exitDx=0;exitDy=0;dashed=1;edgeStyle=orthogonalEdgeStyle;" edge="1" parent="1" source="n0dhm6OhQnU2BIpkCSnQ-1" target="9Vpx_MVxpbdplWGW8Vaq-105">
          <mxGeometry width="50" height="50" relative="1" as="geometry">
            <mxPoint x="223" y="351.9999999999999" as="sourcePoint" />
            <mxPoint x="148" y="226.9999999999999" as="targetPoint" />
            <Array as="points">
              <mxPoint x="216" y="317" />
              <mxPoint x="216" y="313" />
            </Array>
          </mxGeometry>
        </mxCell>
        <mxCell id="9Vpx_MVxpbdplWGW8Vaq-111" value="JTAG&lt;br&gt;+ Serial output" style="edgeLabel;html=1;align=center;verticalAlign=middle;resizable=0;points=[];" connectable="0" vertex="1" parent="9Vpx_MVxpbdplWGW8Vaq-110">
          <mxGeometry x="-0.4687" y="2" relative="1" as="geometry">
            <mxPoint x="-43" y="8" as="offset" />
          </mxGeometry>
        </mxCell>
        <mxCell id="9Vpx_MVxpbdplWGW8Vaq-133" value="" style="endArrow=none;html=1;rounded=0;entryX=0;entryY=0.25;entryDx=0;entryDy=0;exitX=1;exitY=0.5;exitDx=0;exitDy=0;edgeStyle=orthogonalEdgeStyle;dashed=1;dashPattern=8 8;" edge="1" parent="1" source="9Vpx_MVxpbdplWGW8Vaq-98" target="n0dhm6OhQnU2BIpkCSnQ-1">
          <mxGeometry width="50" height="50" relative="1" as="geometry">
            <mxPoint x="33" y="341.9999999999999" as="sourcePoint" />
            <mxPoint x="173" y="391.9999999999999" as="targetPoint" />
            <Array as="points">
              <mxPoint x="140" y="407" />
            </Array>
          </mxGeometry>
        </mxCell>
        <mxCell id="sfbrgU2ahjWCOExDPV0n-10" value="GPIO" style="edgeLabel;html=1;align=center;verticalAlign=middle;resizable=0;points=[];" connectable="0" vertex="1" parent="9Vpx_MVxpbdplWGW8Vaq-133">
          <mxGeometry x="0.4548" y="-1" relative="1" as="geometry">
            <mxPoint x="-11" y="-11" as="offset" />
          </mxGeometry>
        </mxCell>
        <mxCell id="9Vpx_MVxpbdplWGW8Vaq-135" value="" style="endArrow=none;html=1;rounded=0;edgeStyle=orthogonalEdgeStyle;dashed=1;dashPattern=8 8;entryX=0;entryY=0.344;entryDx=0;entryDy=0;exitX=1.013;exitY=0.696;exitDx=0;exitDy=0;exitPerimeter=0;entryPerimeter=0;" edge="1" parent="1" source="n0dhm6OhQnU2BIpkCSnQ-1" target="9Vpx_MVxpbdplWGW8Vaq-99">
          <mxGeometry width="50" height="50" relative="1" as="geometry">
            <mxPoint x="313" y="497" as="sourcePoint" />
            <mxPoint x="390" y="490" as="targetPoint" />
            <Array as="points" />
          </mxGeometry>
        </mxCell>
        <mxCell id="OQPAwg6tuMYvYWRS_jNI-21" value="QDEC" style="edgeLabel;html=1;align=center;verticalAlign=middle;resizable=0;points=[];" connectable="0" vertex="1" parent="9Vpx_MVxpbdplWGW8Vaq-135">
          <mxGeometry x="0.1592" relative="1" as="geometry">
            <mxPoint x="-145" y="-13" as="offset" />
          </mxGeometry>
        </mxCell>
        <mxCell id="9Vpx_MVxpbdplWGW8Vaq-144" value="" style="endArrow=none;html=1;rounded=0;edgeStyle=orthogonalEdgeStyle;entryX=0;entryY=0.75;entryDx=0;entryDy=0;exitX=1;exitY=0.5;exitDx=0;exitDy=0;dashed=1;" edge="1" parent="1" source="9Vpx_MVxpbdplWGW8Vaq-96" target="n0dhm6OhQnU2BIpkCSnQ-1">
          <mxGeometry width="50" height="50" relative="1" as="geometry">
            <mxPoint x="33" y="562" as="sourcePoint" />
            <mxPoint x="173" y="512" as="targetPoint" />
            <Array as="points" />
          </mxGeometry>
        </mxCell>
        <mxCell id="9Vpx_MVxpbdplWGW8Vaq-145" value="1-Wire" style="edgeLabel;html=1;align=center;verticalAlign=middle;resizable=0;points=[];" connectable="0" vertex="1" parent="9Vpx_MVxpbdplWGW8Vaq-144">
          <mxGeometry x="-0.1813" relative="1" as="geometry">
            <mxPoint x="2" y="-13" as="offset" />
          </mxGeometry>
        </mxCell>
        <mxCell id="9Vpx_MVxpbdplWGW8Vaq-146" value="CLK:&lt;br&gt;32kHz" style="rounded=1;whiteSpace=wrap;html=1;fillColor=#fff2cc;strokeColor=#d6b656;" vertex="1" parent="1">
          <mxGeometry x="103" y="641" width="80" height="40" as="geometry" />
        </mxCell>
        <mxCell id="9Vpx_MVxpbdplWGW8Vaq-158" value="" style="endArrow=none;html=1;rounded=0;edgeStyle=orthogonalEdgeStyle;entryX=0.5;entryY=0;entryDx=0;entryDy=0;exitX=0.25;exitY=1;exitDx=0;exitDy=0;dashed=1;dashPattern=8 8;" edge="1" parent="1" source="n0dhm6OhQnU2BIpkCSnQ-1" target="9Vpx_MVxpbdplWGW8Vaq-146">
          <mxGeometry width="50" height="50" relative="1" as="geometry">
            <mxPoint x="322.9999999999834" y="406.9999999999999" as="sourcePoint" />
            <mxPoint x="408" y="406.9999999999999" as="targetPoint" />
            <Array as="points">
              <mxPoint x="216" y="560" />
              <mxPoint x="143" y="560" />
            </Array>
          </mxGeometry>
        </mxCell>
        <mxCell id="OQPAwg6tuMYvYWRS_jNI-28" value="LSE-CLK" style="edgeLabel;html=1;align=center;verticalAlign=middle;resizable=0;points=[];" connectable="0" vertex="1" parent="9Vpx_MVxpbdplWGW8Vaq-158">
          <mxGeometry x="-0.3648" y="-2" relative="1" as="geometry">
            <mxPoint y="12" as="offset" />
          </mxGeometry>
        </mxCell>
        <mxCell id="9Vpx_MVxpbdplWGW8Vaq-159" value="2xAA-Batterien" style="rounded=1;whiteSpace=wrap;html=1;fillColor=#f8cecc;strokeColor=#b85450;dashed=1;" vertex="1" parent="1">
          <mxGeometry x="415" y="881.25" width="120" height="60" as="geometry" />
        </mxCell>
        <mxCell id="9Vpx_MVxpbdplWGW8Vaq-161" value="Buck boost converter:&lt;br&gt;&lt;div&gt;TPS613222A (5V)&lt;br&gt;+&amp;nbsp;&lt;span style=&quot;background-color: transparent;&quot;&gt;DFE252012F&amp;nbsp;&lt;/span&gt;&lt;/div&gt;&lt;div&gt;&lt;span style=&quot;background-color: transparent; color: light-dark(rgb(0, 0, 0), rgb(255, 255, 255));&quot;&gt;(+&amp;nbsp;&lt;/span&gt;&lt;span style=&quot;background-color: transparent;&quot;&gt;Shottky diode?)&lt;/span&gt;&lt;/div&gt;" style="rounded=1;whiteSpace=wrap;html=1;fillColor=#f8cecc;strokeColor=#b85450;" vertex="1" parent="1">
          <mxGeometry x="440" y="564.5" width="160" height="60" as="geometry" />
        </mxCell>
        <mxCell id="g0RBi1K19QZpGOzRW8Zm-10" value="" style="endArrow=none;html=1;rounded=0;entryX=1;entryY=0.12;entryDx=0;entryDy=0;exitX=0.5;exitY=0;exitDx=0;exitDy=0;strokeWidth=2;edgeStyle=orthogonalEdgeStyle;" edge="1" parent="1" source="9Vpx_MVxpbdplWGW8Vaq-159" target="h_469dfM4F6EhuWBBm7H-5">
          <mxGeometry width="50" height="50" relative="1" as="geometry">
            <mxPoint x="520" y="824" as="sourcePoint" />
            <mxPoint x="520" y="804" as="targetPoint" />
            <Array as="points">
              <mxPoint x="475" y="860" />
              <mxPoint x="387" y="860" />
            </Array>
          </mxGeometry>
        </mxCell>
        <mxCell id="sfbrgU2ahjWCOExDPV0n-5" value="1.8-3.25V" style="edgeLabel;html=1;align=center;verticalAlign=middle;resizable=0;points=[];" connectable="0" vertex="1" parent="g0RBi1K19QZpGOzRW8Zm-10">
          <mxGeometry x="0.469" relative="1" as="geometry">
            <mxPoint x="95" y="10" as="offset" />
          </mxGeometry>
        </mxCell>
        <mxCell id="g0RBi1K19QZpGOzRW8Zm-19" value="" style="endArrow=none;html=1;rounded=0;entryX=0;entryY=0.5;entryDx=0;entryDy=0;edgeStyle=orthogonalEdgeStyle;strokeWidth=2;exitX=0.5;exitY=1;exitDx=0;exitDy=0;" edge="1" parent="1" source="n0dhm6OhQnU2BIpkCSnQ-1" target="h_469dfM4F6EhuWBBm7H-5">
          <mxGeometry width="50" height="50" relative="1" as="geometry">
            <mxPoint x="321" y="542" as="sourcePoint" />
            <mxPoint x="288" y="834" as="targetPoint" />
            <Array as="points">
              <mxPoint x="248" y="776" />
              <mxPoint x="378" y="776" />
            </Array>
          </mxGeometry>
        </mxCell>
        <mxCell id="OQPAwg6tuMYvYWRS_jNI-25" value="VDD 1.8-5V&lt;br&gt;+&lt;br&gt;GP-Comparator" style="edgeLabel;html=1;align=center;verticalAlign=middle;resizable=0;points=[];" connectable="0" vertex="1" parent="g0RBi1K19QZpGOzRW8Zm-19">
          <mxGeometry x="-0.9167" relative="1" as="geometry">
            <mxPoint y="34" as="offset" />
          </mxGeometry>
        </mxCell>
        <mxCell id="g0RBi1K19QZpGOzRW8Zm-22" value="" style="rounded=1;whiteSpace=wrap;html=1;dashed=1;" vertex="1" parent="1">
          <mxGeometry x="13" y="995" width="40" height="20" as="geometry" />
        </mxCell>
        <mxCell id="g0RBi1K19QZpGOzRW8Zm-24" value="- Optional component" style="text;html=1;align=left;verticalAlign=middle;resizable=0;points=[];autosize=1;strokeColor=none;fillColor=none;" vertex="1" parent="1">
          <mxGeometry x="63" y="990" width="140" height="30" as="geometry" />
        </mxCell>
        <mxCell id="g0RBi1K19QZpGOzRW8Zm-25" value="" style="rounded=1;whiteSpace=wrap;html=1;" vertex="1" parent="1">
          <mxGeometry x="13" y="965" width="40" height="20" as="geometry" />
        </mxCell>
        <mxCell id="g0RBi1K19QZpGOzRW8Zm-26" value="- Mandatory component" style="text;html=1;align=left;verticalAlign=middle;resizable=0;points=[];autosize=1;strokeColor=none;fillColor=none;" vertex="1" parent="1">
          <mxGeometry x="63" y="960" width="150" height="30" as="geometry" />
        </mxCell>
        <mxCell id="sfbrgU2ahjWCOExDPV0n-1" value="" style="endArrow=none;html=1;rounded=0;entryX=0.5;entryY=1;entryDx=0;entryDy=0;exitX=0;exitY=0.5;exitDx=0;exitDy=0;strokeWidth=2;edgeStyle=orthogonalEdgeStyle;" edge="1" parent="1" source="h_469dfM4F6EhuWBBm7H-5" target="9Vpx_MVxpbdplWGW8Vaq-218">
          <mxGeometry width="50" height="50" relative="1" as="geometry">
            <mxPoint x="520" y="784" as="sourcePoint" />
            <mxPoint x="438" y="632" as="targetPoint" />
            <Array as="points">
              <mxPoint x="520" y="776" />
            </Array>
          </mxGeometry>
        </mxCell>
        <mxCell id="9Vpx_MVxpbdplWGW8Vaq-218" value="5V supply switch&lt;br&gt;(MOSFET)" style="rounded=1;whiteSpace=wrap;html=1;fillColor=#fff2cc;strokeColor=#d6b656;" vertex="1" parent="1">
          <mxGeometry x="480" y="681" width="80" height="63" as="geometry" />
        </mxCell>
        <mxCell id="sfbrgU2ahjWCOExDPV0n-6" value="" style="endArrow=none;html=1;rounded=0;entryX=0.5;entryY=0;entryDx=0;entryDy=0;edgeStyle=orthogonalEdgeStyle;strokeWidth=2;exitX=1;exitY=0.88;exitDx=0;exitDy=0;" edge="1" parent="1" source="h_469dfM4F6EhuWBBm7H-5" target="9Vpx_MVxpbdplWGW8Vaq-101">
          <mxGeometry width="50" height="50" relative="1" as="geometry">
            <mxPoint x="310" y="734" as="sourcePoint" />
            <mxPoint x="313" y="821" as="targetPoint" />
            <Array as="points">
              <mxPoint x="368" y="860" />
              <mxPoint x="248" y="860" />
            </Array>
          </mxGeometry>
        </mxCell>
        <mxCell id="sfbrgU2ahjWCOExDPV0n-7" value="5V" style="edgeLabel;html=1;align=center;verticalAlign=middle;resizable=0;points=[];" connectable="0" vertex="1" parent="sfbrgU2ahjWCOExDPV0n-6">
          <mxGeometry x="0.7306" y="-1" relative="1" as="geometry">
            <mxPoint x="-17" y="8" as="offset" />
          </mxGeometry>
        </mxCell>
        <mxCell id="sfbrgU2ahjWCOExDPV0n-8" value="" style="endArrow=none;html=1;rounded=0;exitX=0;exitY=0.5;exitDx=0;exitDy=0;edgeStyle=orthogonalEdgeStyle;dashed=1;entryX=1;entryY=0.388;entryDx=0;entryDy=0;entryPerimeter=0;" edge="1" parent="1" source="OQPAwg6tuMYvYWRS_jNI-1" target="n0dhm6OhQnU2BIpkCSnQ-1">
          <mxGeometry width="50" height="50" relative="1" as="geometry">
            <mxPoint x="140" y="735" as="sourcePoint" />
            <mxPoint x="314" y="477" as="targetPoint" />
            <Array as="points" />
          </mxGeometry>
        </mxCell>
        <mxCell id="OQPAwg6tuMYvYWRS_jNI-24" value="I2C" style="edgeLabel;html=1;align=center;verticalAlign=middle;resizable=0;points=[];" connectable="0" vertex="1" parent="sfbrgU2ahjWCOExDPV0n-8">
          <mxGeometry x="0.1117" y="-3" relative="1" as="geometry">
            <mxPoint x="-13" y="-7" as="offset" />
          </mxGeometry>
        </mxCell>
        <mxCell id="sfbrgU2ahjWCOExDPV0n-9" value="&lt;div&gt;Open-Drain&lt;/div&gt;GPIO" style="edgeLabel;html=1;align=center;verticalAlign=middle;resizable=0;points=[];labelBackgroundColor=default;" connectable="0" vertex="1" parent="sfbrgU2ahjWCOExDPV0n-8">
          <mxGeometry x="0.9198" relative="1" as="geometry">
            <mxPoint x="25" y="148" as="offset" />
          </mxGeometry>
        </mxCell>
        <mxCell id="sfbrgU2ahjWCOExDPV0n-11" value="" style="endArrow=none;html=1;rounded=0;entryX=0.5;entryY=1;entryDx=0;entryDy=0;strokeWidth=2;exitX=0.5;exitY=0;exitDx=0;exitDy=0;" edge="1" parent="1" source="9Vpx_MVxpbdplWGW8Vaq-218" target="9Vpx_MVxpbdplWGW8Vaq-161">
          <mxGeometry width="50" height="50" relative="1" as="geometry">
            <mxPoint x="472" y="646.5" as="sourcePoint" />
            <mxPoint x="520" y="634.5" as="targetPoint" />
          </mxGeometry>
        </mxCell>
        <mxCell id="OQPAwg6tuMYvYWRS_jNI-3" value="" style="endArrow=none;html=1;rounded=0;entryX=0;entryY=0.5;entryDx=0;entryDy=0;edgeStyle=orthogonalEdgeStyle;strokeWidth=2;exitX=0.5;exitY=1;exitDx=0;exitDy=0;" edge="1" parent="1" source="9Vpx_MVxpbdplWGW8Vaq-146" target="h_469dfM4F6EhuWBBm7H-5">
          <mxGeometry width="50" height="50" relative="1" as="geometry">
            <mxPoint x="300" y="684" as="sourcePoint" />
            <mxPoint x="365" y="963" as="targetPoint" />
            <Array as="points">
              <mxPoint x="143" y="776" />
              <mxPoint x="378" y="776" />
            </Array>
          </mxGeometry>
        </mxCell>
        <mxCell id="OQPAwg6tuMYvYWRS_jNI-5" value="" style="endArrow=none;html=1;rounded=0;edgeStyle=orthogonalEdgeStyle;dashed=1;exitX=0.75;exitY=0;exitDx=0;exitDy=0;entryX=0.5;entryY=0;entryDx=0;entryDy=0;" edge="1" parent="1" source="n0dhm6OhQnU2BIpkCSnQ-1" target="g0RBi1K19QZpGOzRW8Zm-5">
          <mxGeometry width="50" height="50" relative="1" as="geometry">
            <mxPoint x="820" y="537" as="sourcePoint" />
            <mxPoint x="790" y="457.5" as="targetPoint" />
            <Array as="points">
              <mxPoint x="281" y="310" />
              <mxPoint x="670" y="310" />
            </Array>
          </mxGeometry>
        </mxCell>
        <mxCell id="OQPAwg6tuMYvYWRS_jNI-6" value="I2C" style="edgeLabel;html=1;align=center;verticalAlign=middle;resizable=0;points=[];" connectable="0" vertex="1" parent="OQPAwg6tuMYvYWRS_jNI-5">
          <mxGeometry x="-0.1813" relative="1" as="geometry">
            <mxPoint x="-115" y="20" as="offset" />
          </mxGeometry>
        </mxCell>
        <mxCell id="OQPAwg6tuMYvYWRS_jNI-9" value="DC motor:&lt;br&gt;JS-30" style="rounded=1;whiteSpace=wrap;html=1;fillColor=#ffe6cc;strokeColor=#d79b00;" vertex="1" parent="1">
          <mxGeometry x="760" y="320" width="80" height="70" as="geometry" />
        </mxCell>
        <mxCell id="OQPAwg6tuMYvYWRS_jNI-10" value="DC motor driver:&lt;br&gt;&lt;div&gt;DRV8837&lt;/div&gt;" style="rounded=1;whiteSpace=wrap;html=1;fillColor=#fff2cc;strokeColor=#d6b656;" vertex="1" parent="1">
          <mxGeometry x="460" y="324" width="120" height="62" as="geometry" />
        </mxCell>
        <mxCell id="OQPAwg6tuMYvYWRS_jNI-11" value="" style="endArrow=none;html=1;rounded=0;entryX=0.5;entryY=1;entryDx=0;entryDy=0;strokeWidth=2;exitX=0.5;exitY=0;exitDx=0;exitDy=0;edgeStyle=orthogonalEdgeStyle;" edge="1" parent="1" source="9Vpx_MVxpbdplWGW8Vaq-161" target="OQPAwg6tuMYvYWRS_jNI-10">
          <mxGeometry width="50" height="50" relative="1" as="geometry">
            <mxPoint x="470" y="684" as="sourcePoint" />
            <mxPoint x="470" y="627" as="targetPoint" />
            <Array as="points">
              <mxPoint x="520" y="447" />
              <mxPoint x="520" y="447" />
            </Array>
          </mxGeometry>
        </mxCell>
        <mxCell id="OQPAwg6tuMYvYWRS_jNI-12" value="" style="endArrow=none;html=1;rounded=0;entryX=0;entryY=0.5;entryDx=0;entryDy=0;strokeWidth=2;exitX=1;exitY=0.5;exitDx=0;exitDy=0;" edge="1" parent="1" source="g0RBi1K19QZpGOzRW8Zm-5" target="OQPAwg6tuMYvYWRS_jNI-9">
          <mxGeometry width="50" height="50" relative="1" as="geometry">
            <mxPoint x="522" y="459" as="sourcePoint" />
            <mxPoint x="632" y="355" as="targetPoint" />
          </mxGeometry>
        </mxCell>
        <mxCell id="OQPAwg6tuMYvYWRS_jNI-13" value="" style="endArrow=none;html=1;rounded=0;entryX=1.006;entryY=0.138;entryDx=0;entryDy=0;exitX=0;exitY=0.5;exitDx=0;exitDy=0;edgeStyle=orthogonalEdgeStyle;dashed=1;entryPerimeter=0;" edge="1" parent="1" source="OQPAwg6tuMYvYWRS_jNI-10" target="n0dhm6OhQnU2BIpkCSnQ-1">
          <mxGeometry width="50" height="50" relative="1" as="geometry">
            <mxPoint x="418" y="765" as="sourcePoint" />
            <mxPoint x="301" y="597" as="targetPoint" />
            <Array as="points">
              <mxPoint x="370" y="355" />
              <mxPoint x="370" y="387" />
            </Array>
          </mxGeometry>
        </mxCell>
        <mxCell id="OQPAwg6tuMYvYWRS_jNI-14" value="2xPWM&lt;br&gt;(TIM+PPI)" style="edgeLabel;html=1;align=center;verticalAlign=middle;resizable=0;points=[];" connectable="0" vertex="1" parent="OQPAwg6tuMYvYWRS_jNI-13">
          <mxGeometry x="0.9198" relative="1" as="geometry">
            <mxPoint x="19" y="-25" as="offset" />
          </mxGeometry>
        </mxCell>
        <mxCell id="OQPAwg6tuMYvYWRS_jNI-16" value="" style="endArrow=none;html=1;rounded=0;entryX=1;entryY=0.5;entryDx=0;entryDy=0;strokeWidth=2;exitX=0.5;exitY=0;exitDx=0;exitDy=0;edgeStyle=orthogonalEdgeStyle;" edge="1" parent="1" source="9Vpx_MVxpbdplWGW8Vaq-161" target="OQPAwg6tuMYvYWRS_jNI-1">
          <mxGeometry width="50" height="50" relative="1" as="geometry">
            <mxPoint x="480" y="581" as="sourcePoint" />
            <mxPoint x="480" y="527" as="targetPoint" />
            <Array as="points">
              <mxPoint x="520" y="432" />
            </Array>
          </mxGeometry>
        </mxCell>
        <mxCell id="OQPAwg6tuMYvYWRS_jNI-17" value="" style="endArrow=none;html=1;rounded=0;entryX=0.5;entryY=1;entryDx=0;entryDy=0;dashed=1;edgeStyle=orthogonalEdgeStyle;exitX=0.5;exitY=0;exitDx=0;exitDy=0;" edge="1" parent="1" source="n0dhm6OhQnU2BIpkCSnQ-1" target="9Vpx_MVxpbdplWGW8Vaq-102">
          <mxGeometry width="50" height="50" relative="1" as="geometry">
            <mxPoint x="280" y="307" as="sourcePoint" />
            <mxPoint x="160" y="247" as="targetPoint" />
          </mxGeometry>
        </mxCell>
        <mxCell id="OQPAwg6tuMYvYWRS_jNI-20" value="BLE" style="edgeLabel;html=1;align=center;verticalAlign=middle;resizable=0;points=[];" connectable="0" vertex="1" parent="OQPAwg6tuMYvYWRS_jNI-17">
          <mxGeometry x="0.0667" y="-3" relative="1" as="geometry">
            <mxPoint x="-3" y="-21" as="offset" />
          </mxGeometry>
        </mxCell>
        <mxCell id="OQPAwg6tuMYvYWRS_jNI-1" value="Display:&lt;br&gt;SSD1306&lt;br&gt;&lt;div&gt;OLED 128x64&lt;/div&gt;" style="rounded=1;whiteSpace=wrap;html=1;fillColor=#dae8fc;strokeColor=#6c8ebf;" vertex="1" parent="1">
          <mxGeometry x="380" y="397" width="80" height="70" as="geometry" />
        </mxCell>
        <mxCell id="OQPAwg6tuMYvYWRS_jNI-26" value="" style="endArrow=none;html=1;rounded=0;entryX=0;entryY=0.5;entryDx=0;entryDy=0;strokeWidth=2;exitX=1;exitY=0.5;exitDx=0;exitDy=0;" edge="1" parent="1" source="OQPAwg6tuMYvYWRS_jNI-10" target="g0RBi1K19QZpGOzRW8Zm-5">
          <mxGeometry width="50" height="50" relative="1" as="geometry">
            <mxPoint x="580" y="355" as="sourcePoint" />
            <mxPoint x="760" y="355" as="targetPoint" />
          </mxGeometry>
        </mxCell>
        <mxCell id="g0RBi1K19QZpGOzRW8Zm-5" value="Power monitor:&lt;br&gt;INA219" style="rounded=1;whiteSpace=wrap;html=1;fillColor=#d5e8d4;strokeColor=#82b366;" vertex="1" parent="1">
          <mxGeometry x="610" y="325" width="120" height="60" as="geometry" />
        </mxCell>
        <mxCell id="OQPAwg6tuMYvYWRS_jNI-27" value="" style="endArrow=none;html=1;rounded=0;entryX=0.5;entryY=1;entryDx=0;entryDy=0;strokeWidth=2;exitX=0.5;exitY=0;exitDx=0;exitDy=0;edgeStyle=orthogonalEdgeStyle;" edge="1" parent="1" source="9Vpx_MVxpbdplWGW8Vaq-161" target="9Vpx_MVxpbdplWGW8Vaq-99">
          <mxGeometry width="50" height="50" relative="1" as="geometry">
            <mxPoint x="400" y="617.5" as="sourcePoint" />
            <mxPoint x="360" y="550" as="targetPoint" />
            <Array as="points">
              <mxPoint x="520" y="540" />
              <mxPoint x="670" y="540" />
            </Array>
          </mxGeometry>
        </mxCell>
        <mxCell id="OQPAwg6tuMYvYWRS_jNI-39" value="5V" style="edgeLabel;html=1;align=center;verticalAlign=middle;resizable=0;points=[];" connectable="0" vertex="1" parent="OQPAwg6tuMYvYWRS_jNI-27">
          <mxGeometry x="-0.8332" y="1" relative="1" as="geometry">
            <mxPoint x="-19" y="1" as="offset" />
          </mxGeometry>
        </mxCell>
        <mxCell id="OQPAwg6tuMYvYWRS_jNI-31" value="" style="endArrow=none;html=1;rounded=0;entryX=0;entryY=0.5;entryDx=0;entryDy=0;strokeWidth=2;edgeStyle=orthogonalEdgeStyle;exitX=0;exitY=0.5;exitDx=0;exitDy=0;entryPerimeter=0;" edge="1" parent="1" source="h_469dfM4F6EhuWBBm7H-5" target="h_469dfM4F6EhuWBBm7H-21">
          <mxGeometry width="50" height="50" relative="1" as="geometry">
            <mxPoint x="410" y="784" as="sourcePoint" />
            <mxPoint x="670" y="604.5" as="targetPoint" />
            <Array as="points">
              <mxPoint x="378" y="776" />
              <mxPoint x="670" y="776" />
              <mxPoint x="670" y="621" />
            </Array>
          </mxGeometry>
        </mxCell>
        <mxCell id="h_469dfM4F6EhuWBBm7H-17" value="1.8-5V" style="edgeLabel;html=1;align=center;verticalAlign=middle;resizable=0;points=[];" connectable="0" vertex="1" parent="OQPAwg6tuMYvYWRS_jNI-31">
          <mxGeometry x="0.8942" relative="1" as="geometry">
            <mxPoint y="-3" as="offset" />
          </mxGeometry>
        </mxCell>
        <mxCell id="OQPAwg6tuMYvYWRS_jNI-33" value="" style="endArrow=none;html=1;rounded=0;entryX=0.5;entryY=1;entryDx=0;entryDy=0;strokeWidth=2;edgeStyle=orthogonalEdgeStyle;exitX=1;exitY=0.5;exitDx=0;exitDy=0;exitPerimeter=0;" edge="1" parent="1" source="h_469dfM4F6EhuWBBm7H-21" target="9Vpx_MVxpbdplWGW8Vaq-99">
          <mxGeometry width="50" height="50" relative="1" as="geometry">
            <mxPoint x="670" y="585" as="sourcePoint" />
            <mxPoint x="420" y="560" as="targetPoint" />
            <Array as="points" />
          </mxGeometry>
        </mxCell>
        <mxCell id="OQPAwg6tuMYvYWRS_jNI-34" value="" style="endArrow=none;html=1;rounded=0;edgeStyle=orthogonalEdgeStyle;dashed=1;dashPattern=8 8;entryX=0;entryY=0.75;entryDx=0;entryDy=0;exitX=1.01;exitY=0.833;exitDx=0;exitDy=0;exitPerimeter=0;" edge="1" parent="1" source="n0dhm6OhQnU2BIpkCSnQ-1" target="9Vpx_MVxpbdplWGW8Vaq-99">
          <mxGeometry width="50" height="50" relative="1" as="geometry">
            <mxPoint x="320" y="520" as="sourcePoint" />
            <mxPoint x="377" y="500" as="targetPoint" />
            <Array as="points" />
          </mxGeometry>
        </mxCell>
        <mxCell id="OQPAwg6tuMYvYWRS_jNI-35" value="GPIO" style="edgeLabel;html=1;align=center;verticalAlign=middle;resizable=0;points=[];" connectable="0" vertex="1" parent="OQPAwg6tuMYvYWRS_jNI-34">
          <mxGeometry x="0.1592" relative="1" as="geometry">
            <mxPoint x="-145" y="-12" as="offset" />
          </mxGeometry>
        </mxCell>
        <mxCell id="OQPAwg6tuMYvYWRS_jNI-36" value="" style="endArrow=classic;html=1;rounded=0;" edge="1" parent="1">
          <mxGeometry width="50" height="50" relative="1" as="geometry">
            <mxPoint x="630" y="641" as="sourcePoint" />
            <mxPoint x="650" y="601" as="targetPoint" />
          </mxGeometry>
        </mxCell>
        <mxCell id="P32wR6hOD1pwU87mvWWu-1" value="Schottky diode&lt;div&gt;BAT54C&lt;/div&gt;" style="edgeLabel;html=1;align=center;verticalAlign=middle;resizable=0;points=[];" connectable="0" vertex="1" parent="OQPAwg6tuMYvYWRS_jNI-36">
          <mxGeometry x="-0.12" y="1" relative="1" as="geometry">
            <mxPoint x="-38" y="38" as="offset" />
          </mxGeometry>
        </mxCell>
        <mxCell id="OQPAwg6tuMYvYWRS_jNI-38" value="" style="endArrow=none;html=1;rounded=0;entryX=0;entryY=0.5;entryDx=0;entryDy=0;edgeStyle=orthogonalEdgeStyle;strokeWidth=2;exitX=0;exitY=0.5;exitDx=0;exitDy=0;" edge="1" parent="1" source="9Vpx_MVxpbdplWGW8Vaq-96" target="h_469dfM4F6EhuWBBm7H-5">
          <mxGeometry width="50" height="50" relative="1" as="geometry">
            <mxPoint x="150" y="760" as="sourcePoint" />
            <mxPoint x="255" y="913" as="targetPoint" />
            <Array as="points">
              <mxPoint x="3" y="497" />
              <mxPoint x="3" y="776" />
              <mxPoint x="378" y="776" />
            </Array>
          </mxGeometry>
        </mxCell>
        <mxCell id="OQPAwg6tuMYvYWRS_jNI-42" value="" style="endArrow=none;html=1;rounded=0;entryX=0;entryY=0.5;entryDx=0;entryDy=0;edgeStyle=orthogonalEdgeStyle;strokeWidth=2;exitX=0;exitY=0.5;exitDx=0;exitDy=0;" edge="1" parent="1" source="9Vpx_MVxpbdplWGW8Vaq-98" target="h_469dfM4F6EhuWBBm7H-5">
          <mxGeometry width="50" height="50" relative="1" as="geometry">
            <mxPoint x="70" y="497" as="sourcePoint" />
            <mxPoint x="248" y="804" as="targetPoint" />
            <Array as="points">
              <mxPoint x="3" y="406" />
              <mxPoint x="3" y="776" />
              <mxPoint x="378" y="776" />
            </Array>
          </mxGeometry>
        </mxCell>
        <mxCell id="OQPAwg6tuMYvYWRS_jNI-43" value="Temperature&lt;br&gt;sensor" style="rounded=1;whiteSpace=wrap;html=1;fillColor=#d5e8d4;strokeColor=#82b366;" vertex="1" parent="1">
          <mxGeometry x="208" y="506" width="80" height="30" as="geometry" />
        </mxCell>
        <mxCell id="h_469dfM4F6EhuWBBm7H-5" value="" style="html=1;shape=mxgraph.electrical.electro-mechanical.twoWaySwitch;aspect=fixed;elSwitchState=2;rotation=90;strokeWidth=2;" vertex="1" parent="1">
          <mxGeometry x="340" y="808" width="75" height="26" as="geometry" />
        </mxCell>
        <mxCell id="h_469dfM4F6EhuWBBm7H-6" value="" style="rounded=1;whiteSpace=wrap;html=1;dashed=1;fillColor=none;" vertex="1" parent="1">
          <mxGeometry x="357.5" y="790" width="40" height="60" as="geometry" />
        </mxCell>
        <mxCell id="h_469dfM4F6EhuWBBm7H-7" value="0 Ohm" style="pointerEvents=1;verticalLabelPosition=bottom;shadow=0;align=center;html=1;verticalAlign=top;shape=mxgraph.electrical.resistors.resistor_1;rotation=-90;strokeWidth=2;" vertex="1" parent="1">
          <mxGeometry x="446.25" y="808" width="57.5" height="20" as="geometry" />
        </mxCell>
        <mxCell id="h_469dfM4F6EhuWBBm7H-9" value="" style="endArrow=none;html=1;rounded=0;entryX=0;entryY=0.5;entryDx=0;entryDy=0;exitX=0.5;exitY=0;exitDx=0;exitDy=0;strokeWidth=2;edgeStyle=orthogonalEdgeStyle;entryPerimeter=0;" edge="1" parent="1" source="9Vpx_MVxpbdplWGW8Vaq-159" target="h_469dfM4F6EhuWBBm7H-7">
          <mxGeometry width="50" height="50" relative="1" as="geometry">
            <mxPoint x="578" y="882" as="sourcePoint" />
            <mxPoint x="490" y="860" as="targetPoint" />
            <Array as="points">
              <mxPoint x="475" y="850" />
              <mxPoint x="475" y="850" />
            </Array>
          </mxGeometry>
        </mxCell>
        <mxCell id="h_469dfM4F6EhuWBBm7H-11" value="" style="endArrow=none;html=1;rounded=0;entryX=0.5;entryY=1;entryDx=0;entryDy=0;exitX=1;exitY=0.5;exitDx=0;exitDy=0;strokeWidth=2;edgeStyle=orthogonalEdgeStyle;exitPerimeter=0;" edge="1" parent="1" source="h_469dfM4F6EhuWBBm7H-7" target="9Vpx_MVxpbdplWGW8Vaq-218">
          <mxGeometry width="50" height="50" relative="1" as="geometry">
            <mxPoint x="446.25" y="824" as="sourcePoint" />
            <mxPoint x="446.25" y="790" as="targetPoint" />
            <Array as="points">
              <mxPoint x="475" y="776" />
              <mxPoint x="520" y="776" />
            </Array>
          </mxGeometry>
        </mxCell>
        <mxCell id="h_469dfM4F6EhuWBBm7H-18" value="1.8-5V" style="edgeLabel;html=1;align=center;verticalAlign=middle;resizable=0;points=[];" connectable="0" vertex="1" parent="h_469dfM4F6EhuWBBm7H-11">
          <mxGeometry x="0.696" y="1" relative="1" as="geometry">
            <mxPoint as="offset" />
          </mxGeometry>
        </mxCell>
        <mxCell id="h_469dfM4F6EhuWBBm7H-12" value="" style="rounded=1;whiteSpace=wrap;html=1;dashed=1;fillColor=none;" vertex="1" parent="1">
          <mxGeometry x="456" y="791" width="55" height="60" as="geometry" />
        </mxCell>
        <mxCell id="h_469dfM4F6EhuWBBm7H-13" value="0 Ohm" style="pointerEvents=1;verticalLabelPosition=bottom;shadow=0;align=center;html=1;verticalAlign=top;shape=mxgraph.electrical.resistors.resistor_1;rotation=-90;strokeWidth=2;" vertex="1" parent="1">
          <mxGeometry x="219.25" y="808" width="57.5" height="20" as="geometry" />
        </mxCell>
        <mxCell id="h_469dfM4F6EhuWBBm7H-14" value="" style="endArrow=none;html=1;rounded=0;entryX=0;entryY=0.5;entryDx=0;entryDy=0;exitX=0.5;exitY=0;exitDx=0;exitDy=0;strokeWidth=2;edgeStyle=orthogonalEdgeStyle;entryPerimeter=0;" edge="1" parent="1" source="9Vpx_MVxpbdplWGW8Vaq-101" target="h_469dfM4F6EhuWBBm7H-13">
          <mxGeometry width="50" height="50" relative="1" as="geometry">
            <mxPoint x="470" y="904" as="sourcePoint" />
            <mxPoint x="470" y="870" as="targetPoint" />
            <Array as="points">
              <mxPoint x="248" y="860" />
              <mxPoint x="248" y="860" />
            </Array>
          </mxGeometry>
        </mxCell>
        <mxCell id="h_469dfM4F6EhuWBBm7H-15" value="" style="endArrow=none;html=1;rounded=0;entryX=0.5;entryY=1;entryDx=0;entryDy=0;exitX=1;exitY=0.5;exitDx=0;exitDy=0;strokeWidth=2;edgeStyle=orthogonalEdgeStyle;exitPerimeter=0;" edge="1" parent="1" source="h_469dfM4F6EhuWBBm7H-13" target="9Vpx_MVxpbdplWGW8Vaq-146">
          <mxGeometry width="50" height="50" relative="1" as="geometry">
            <mxPoint x="260" y="894" as="sourcePoint" />
            <mxPoint x="260" y="860" as="targetPoint" />
            <Array as="points">
              <mxPoint x="248" y="776" />
              <mxPoint x="143" y="776" />
            </Array>
          </mxGeometry>
        </mxCell>
        <mxCell id="h_469dfM4F6EhuWBBm7H-16" value="1.8-5V" style="edgeLabel;html=1;align=center;verticalAlign=middle;resizable=0;points=[];" connectable="0" vertex="1" parent="h_469dfM4F6EhuWBBm7H-15">
          <mxGeometry x="0.9102" y="-2" relative="1" as="geometry">
            <mxPoint x="-2" y="9" as="offset" />
          </mxGeometry>
        </mxCell>
        <mxCell id="h_469dfM4F6EhuWBBm7H-19" value="" style="rounded=1;whiteSpace=wrap;html=1;dashed=1;fillColor=none;" vertex="1" parent="1">
          <mxGeometry x="228" y="788" width="55" height="60" as="geometry" />
        </mxCell>
        <mxCell id="h_469dfM4F6EhuWBBm7H-21" value="" style="pointerEvents=1;verticalLabelPosition=bottom;shadow=0;dashed=0;align=center;html=1;verticalAlign=top;shape=mxgraph.electrical.diodes.diode;rotation=-90;strokeWidth=2;" vertex="1" parent="1">
          <mxGeometry x="643.9000000000001" y="570" width="52.2" height="23.75" as="geometry" />
        </mxCell>
      </root>
    </mxGraphModel>
  </diagram>
</mxfile>
